<?xml version="1.0" encoding="utf-8"?>
<!-- Generator: Adobe Illustrator 21.1.0, SVG Export Plug-In . SVG Version: 6.00 Build 0)  -->
<!DOCTYPE svg PUBLIC "-//W3C//DTD SVG 1.1//EN" "http://www.w3.org/Graphics/SVG/1.1/DTD/svg11.dtd">
<svg version="1.1" id="Ebene_1" xmlns="http://www.w3.org/2000/svg" xmlns:xlink="http://www.w3.org/1999/xlink" x="0px" y="0px"
	 viewBox="0 0 141.7 141.7" style="enable-background:new 0 0 141.7 141.7;" xml:space="preserve">
<style type="text/css">
	.st0{display:none;}
	.st1{display:inline;}
	.st2{fill:#FFFF00;}
	.st3{display:inline;fill:#FFFF00;}
	.st4{display:inline;fill:#1D1D1B;}
	.st5{fill:#FFFFFF;}
	.st6{fill:#1D1D1B;}
</style>
<g id="Linkedin" class="st0">
	<g class="st1">
		<rect id="XMLID_4_" y="0" class="st2" width="141.7" height="141.7"/>
		<path d="M40.7,31.6c5.8,0,9.4,3.8,9.5,8.9c0,4.9-3.7,8.9-9.7,8.9h-0.1c-5.7,0-9.4-3.9-9.4-8.9C31.1,35.4,34.9,31.6,40.7,31.6
			L40.7,31.6z M91,55.1c11.2,0,19.6,7.3,19.6,23.1v29.4h-17V80.2c0-6.9-2.5-11.6-8.6-11.6c-4.7,0-7.5,3.2-8.8,6.2
			c-0.5,1.1-0.6,2.6-0.6,4.2v28.7h-17c0,0,0.2-46.5,0-51.3h17.1v7.3C77.9,60.1,82,55.1,91,55.1L91,55.1z M32.1,56.4h17.1v51.3H32.1
			V56.4L32.1,56.4z"/>
	</g>
</g>
<g id="Twitter" class="st0">
	<rect id="XMLID_23_" y="0" class="st3" width="141.7" height="141.7"/>
	<path id="XMLID_22_" class="st4" d="M23.1,101.2c29.3,20.7,87.6,6,87.8-50.9c7.1-5,9.9-10.1,9.9-10.1c-3.4,1.4-7.3,2.7-11.4,3.1
		c7.8-5.6,8.6-10.9,8.6-10.9s-6.5,3.5-12.7,4.8C96.2,25.9,68.2,28.9,71,55.4c-25.2-1.2-39.9-19.4-41-21c-1.7,0.9-7.9,17.4,6.1,26.8
		c-4.9,0-9.1-2.6-9.1-2.6s-0.7,15.8,15.9,19.8c-4.2,1.3-9.2,0.5-9.2,0.5S38.3,92.3,52.6,93C42.3,100.6,32.7,102,23.1,101.2z"/>
</g>
<g id="facebook" class="st0">
	<rect id="XMLID_26_" y="0" class="st3" width="141.7" height="141.7"/>
	<path id="XMLID_25_" class="st4" d="M95.3,28.1H46.4c-10.1,0-18.3,8.2-18.3,18.3v48.9c0,10.1,8.2,18.3,18.3,18.3h27.4V80.8h-11V68
		h11v-8.7c0,0-1.3-17.6,16.2-17.6c7.4,0,10,0.6,10,0.6v11.3c0,0-1.2,0-6.8,0c-5.6,0-6.3,3.3-6.3,5.8V68h12.6l-1.6,12.7h-11v32.9h8.4
		c10.1,0,18.3-8.2,18.3-18.3V46.4C113.6,36.3,105.4,28.1,95.3,28.1z"/>
</g>
<g id="blogger">
	<rect id="XMLID_20_" y="0" width="141.7" height="141.7"/>
	<path id="XMLID_16_" class="st5" d="M100.8,62.1c-6,0-6.5-3.1-6.5-5c0-12.9-10.5-22.9-23.4-22.9H57.6c-12.9,0-23.4,10.5-23.4,23.4
		v26.6c0,12.9,10.5,23.4,23.4,23.4h26.6c12.9,0,23.4-10.5,23.4-23.4c0,0,0-14.2,0-16.2S106.8,62.1,100.8,62.1z M57.8,53.2h13.1
		c2.4,0,4.3,1.9,4.3,4.3c0,2.4-1.9,4.3-4.3,4.3H57.8c-2.4,0-4.3-1.9-4.3-4.3C53.5,55.1,55.4,53.2,57.8,53.2z M84.1,88.7H57.8
		c-2.4,0-4.3-1.9-4.3-4.3s1.9-4.3,4.3-4.3h26.4c2.4,0,4.3,1.9,4.3,4.3C88.4,86.8,86.5,88.7,84.1,88.7z"/>
</g>
<g id="Mail" class="st0">
	<rect id="XMLID_13_" y="0" class="st3" width="141.7" height="141.7"/>
	<g id="XMLID_10_" class="st1">
		<path id="XMLID_12_" class="st6" d="M61.7,70c2.6,1.5,6.9,4,9.2,5.3l40.5-23.4V48c0-4.1-3.3-7.4-7.4-7.4H37.8
			c-4.1,0-7.4,3.3-7.4,7.4v3.9L61.7,70z"/>
		<path id="XMLID_11_" class="st6" d="M74.6,80.7c-1.3,0.7-2,1.2-2,1.2c-0.5,0.3-1.1,0.4-1.7,0.4c-0.5,0-1.1-0.1-1.6-0.4l0,0
			c-0.1-0.1-4.9-2.8-10.8-6.2l-28-16.2v36c0,4.1,3.3,7.4,7.4,7.4H104c4.1,0,7.4-3.3,7.4-7.4v-36L74.6,80.7z"/>
	</g>
</g>
<g id="Phone" class="st0">
	<rect id="XMLID_8_" y="0" class="st3" width="141.7" height="141.7"/>
	<path id="XMLID_7_" class="st1" d="M112.1,94.8c0,1.1-0.2,2.4-0.6,4.1s-0.8,3-1.2,4c-0.8,2-3.2,4-7.1,6.2c-3.7,2-7.3,3-10.9,3
		c-1.1,0-2.1-0.1-3.1-0.2s-2.1-0.4-3.4-0.7c-1.2-0.4-2.2-0.6-2.8-0.8c-0.6-0.2-1.7-0.6-3.3-1.2c-1.6-0.6-2.5-0.9-2.9-1.1
		c-3.8-1.4-7.2-3-10.3-4.9c-5-3.1-10.2-7.3-15.5-12.6c-5.3-5.3-9.5-10.5-12.6-15.5c-1.9-3-3.5-6.4-4.9-10.3
		c-0.1-0.4-0.5-1.3-1.1-2.9c-0.6-1.6-1-2.6-1.2-3.3c-0.2-0.6-0.5-1.5-0.8-2.8c-0.4-1.2-0.6-2.4-0.7-3.4s-0.2-2-0.2-3.1
		c0-3.6,1-7.2,3-10.9c2.2-3.9,4.3-6.3,6.2-7.1c1-0.4,2.3-0.8,4-1.2c1.7-0.4,3.1-0.6,4.1-0.6c0.5,0,1,0.1,1.2,0.2
		c0.7,0.2,1.7,1.7,3.1,4.5c0.4,0.7,1,1.8,1.8,3.2c0.7,1.4,1.4,2.6,2.1,3.7c0.6,1.1,1.2,2.2,1.8,3.1c0.1,0.2,0.5,0.6,1,1.5
		c0.6,0.8,1,1.5,1.3,2.1s0.4,1.1,0.4,1.7c0,0.8-0.6,1.8-1.7,2.9c-1.1,1.2-2.3,2.2-3.6,3.2s-2.5,2-3.6,3.1s-1.7,2-1.7,2.7
		c0,0.4,0.1,0.8,0.3,1.3s0.4,0.9,0.5,1.2c0.1,0.3,0.4,0.7,0.8,1.4c0.4,0.7,0.6,1,0.7,1.1c3,5.4,6.4,9.9,10.2,13.8s8.4,7.2,13.8,10.2
		c0.1,0,0.4,0.3,1.1,0.7c0.7,0.4,1.1,0.7,1.4,0.8c0.3,0.1,0.7,0.3,1.2,0.5s1,0.3,1.3,0.3c0.7,0,1.6-0.6,2.7-1.7s2.1-2.3,3.1-3.6
		c1-1.3,2.1-2.5,3.2-3.6c1.2-1.1,2.1-1.7,2.9-1.7c0.5,0,1.1,0.1,1.7,0.4s1.3,0.7,2.1,1.3c0.8,0.6,1.3,0.9,1.5,1c1,0.6,2,1.2,3.1,1.8
		c1.1,0.6,2.4,1.3,3.7,2.1c1.4,0.7,2.4,1.3,3.2,1.8c2.7,1.4,4.2,2.4,4.5,3.1C112,93.8,112.1,94.2,112.1,94.8L112.1,94.8z"/>
</g>
<g id="Xing" class="st0">
	<g id="XMLID_5_" class="st1">
		<rect id="XMLID_14_" y="0" class="st2" width="141.7" height="141.7"/>
		<polygon id="XMLID_9_" class="st6" points="60.8,81 81.5,117.6 103.4,117.6 82.7,81 115.2,24.2 93.3,24.2 		"/>
		<polygon id="XMLID_6_" class="st6" points="43,62.7 30.8,41.3 51.7,41.3 63.9,62.7 47.5,89.5 26.6,89.5 		"/>
	</g>
</g>
</svg>
