<?xml version="1.0" encoding="utf-8"?>
<!-- Generator: Adobe Illustrator 21.1.0, SVG Export Plug-In . SVG Version: 6.00 Build 0)  -->
<!DOCTYPE svg PUBLIC "-//W3C//DTD SVG 1.1//EN" "http://www.w3.org/Graphics/SVG/1.1/DTD/svg11.dtd">
<svg version="1.1" id="Ebene_1" xmlns="http://www.w3.org/2000/svg" xmlns:xlink="http://www.w3.org/1999/xlink" x="0px" y="0px"
	 viewBox="0 0 283.5 340.2" style="enable-background:new 0 0 283.5 340.2;" xml:space="preserve">
<style type="text/css">
	.st0{fill:#FFFF00;}
</style>
<path class="st0" d="M47.1,18.2l-3.4-9.9h-7.6v45.5l8.5,3.1V64H14.2V57l8.5-3.1V8.4H15l-3.4,9.9H1.8V0H57v18.2H47.1z"/>
<path class="st0" d="M123.6,10.6v43.4L132,57l0.1,7.1h-30.4V57l8.3-3.1V35.1H84.7v18.8l8.3,3.1V64H62.7V57l8.5-3.1V10.6l-8.5-2.9V0
	h30.6v7.7l-8.5,2.9v15.6h25.5V10.6l-8.6-2.9V0h30.7v7.7L123.6,10.6z"/>
<path class="st0" d="M188.5,64h-49.3V57l8.5-3.1V10.6l-8.5-2.9V0h49.3v17.7h-10.6l-3.5-9.3h-13.2v18.1h19.5v9.4h-19.5v19.7h15
	l4.1-8.5h10.6L188.5,64z"/>
<g>
	<path class="st0" d="M30.4,100.2v39c0,3.5-0.3,6.9-2.1,9.9c-2.2,3.5-6.5,6.3-14.9,6.3c-5.6,0-11.3-1-13.3-1.6l1.5-8.3
		c1.8,0.2,6.4,0.6,9.5,0.6c5.5,0,5.8-2.3,5.8-7.6v-38.3l-8.5-2.9v-7.7h30.6v7.7L30.4,100.2z"/>
	<path class="st0" d="M95.4,153.7H46.1v-7.1l8.5-3.1v-43.3l-8.5-2.9v-7.8h49.3v17.7H84.8L81.3,98H68.1v18.1h19.5v9.4H68.1v19.7h15
		l4.1-8.5h10.6L95.4,153.7z"/>
	<path class="st0" d="M169.6,100.2v53.5h-16l-26.4-52.8h-2.2v42.7l8.4,3.1v7.1h-28.4v-7.1l8.5-3.1v-43.4l-8.5-2.9v-7.7h30.9
		l22.4,48.1v-37.5l-8.5-2.9v-7.7h28.6v7.7L169.6,100.2z"/>
	<path class="st0" d="M208.6,155.2c-12.2,0-20.6-1.7-22-1.8v-16.8h11.1l3.1,9.6c1.3,0.1,4.3,0.3,7.3,0.3c4,0,10.5-1.7,10.5-8.4
		c0-6.2-3.7-7.7-10.9-10.8c-9-3.9-20.1-6.9-20.1-19.7c0-18.7,19.3-18.7,24.6-18.7c6.1,0,14.7,1.1,18.1,1.7V108h-11l-3.1-10.4
		c-0.7-0.1-2.7-0.3-4.4-0.3c-7,0-11.1,2.4-11.1,7.5c0,6.8,5.9,8.2,12.9,11.1c10.5,4.4,18.1,7.8,18.1,20.4
		C231.6,150.4,220.2,155.2,208.6,155.2z"/>
</g>
<path class="st0" d="M23.8,244.8c-12.2,0-20.6-1.7-22-1.8v-16.8h11.1l3.1,9.6c1.3,0.1,4.3,0.3,7.3,0.3c4,0,10.5-1.7,10.5-8.4
	c0-6.2-3.7-7.7-10.9-10.8c-9-3.9-20.1-6.9-20.1-19.7c0-18.7,19.3-18.7,24.6-18.7c6.1,0,14.7,1.1,18.1,1.7v17.4h-11l-3.1-10.4
	c-0.7-0.1-2.7-0.3-4.4-0.3c-7,0-11.1,2.4-11.1,7.5c0,6.8,5.9,8.2,12.9,11.1c10.5,4.4,18.1,7.8,18.1,20.4
	C46.8,240.1,35.5,244.8,23.8,244.8z"/>
<path class="st0" d="M98.4,197.5l-3.4-9.9h-7.6v45.5l8.5,3.1v7.1H65.4v-7.1l8.5-3.1v-45.5h-7.6l-3.4,9.9H53v-18.2h55.2v18.2H98.4z"
	/>
<path class="st0" d="M163.2,243.3h-49.3v-7.1l8.5-3.1v-43.3l-8.5-2.9v-7.8h49.3V197h-10.6l-3.5-9.3h-13.2v18.1h19.5v9.4h-19.5v19.7
	h15l4.1-8.5h10.6L163.2,243.3z"/>
<path class="st0" d="M194.6,189.9v43.3l8.5,3.1v7.1h-30.5v-7.1l8.5-3.1v-43.3l-8.5-2.9v-7.8h30.6v7.8L194.6,189.9z"/>
<path class="st0" d="M274.9,189.9v53.5h-16l-26.4-52.8h-2.2v42.7l8.4,3.1v7.1h-28.4v-7.1l8.5-3.1v-43.4l-8.5-2.9v-7.7H241l22.4,48.1
	v-37.5l-8.5-2.9v-7.7h28.6v7.7L274.9,189.9z"/>
<path class="st0" d="M34.3,334.4c-22.2,0-32.5-13.2-32.5-32.1c0-7.1,1.8-33.8,32.3-33.8c7.1,0,14.9,0.9,18,1.3v17.4H40.9L37.8,277
	c-0.7,0-2.4-0.1-3.4-0.1c-13.4,0-18.8,13-18.8,25.2c0,13.3,6.6,22.2,21.2,22.2c5.9,0,11.9-1,14-1.6l2.1,9.2
	C50.1,332.6,42.5,334.4,34.3,334.4z"/>
<path class="st0" d="M89.7,334.5c-19.4,0-29.9-11.9-29.9-33.2c0-21.2,10.9-32.9,30.3-32.9s30,12,30,33.2
	C119.9,322.8,109.1,334.5,89.7,334.5z M90.1,277.2c-11.8,0-16.3,9-16.3,24.2c0,15.1,4.3,24.2,16,24.2s16.2-9,16.2-24.2
	C106,286.3,101.9,277.2,90.1,277.2z"/>
<path class="st0" d="M208,279.5v43.4l8.5,3.1v7.1h-29.9v-7.2l7.9-3.1v-42.8h-2.4l-15.8,46.5h-11l-15.3-46.5h-2.4v42.9l8,3.1v7.1h-28
	v-7.1l8.5-3.1v-43.4l-8.5-2.9V269h31.8l12.5,41.4l13.4-41.4h31.2v7.7L208,279.5z"/>
</svg>
