<?xml version="1.0" encoding="utf-8"?>
<!-- Generator: Adobe Illustrator 21.1.0, SVG Export Plug-In . SVG Version: 6.00 Build 0)  -->
<!DOCTYPE svg PUBLIC "-//W3C//DTD SVG 1.1//EN" "http://www.w3.org/Graphics/SVG/1.1/DTD/svg11.dtd">
<svg version="1.1" id="Ebene_1" xmlns="http://www.w3.org/2000/svg" xmlns:xlink="http://www.w3.org/1999/xlink" x="0px" y="0px"
	 viewBox="0 0 283.5 28.3" style="enable-background:new 0 0 283.5 28.3;" xml:space="preserve">
<g>
	<path d="M16.4,5.8h-3l0.3-3.1h-2.9l-2,14.1l2.4,0.6L11,19.5H2.4l0.3-2.1L5,16.8l2-14.1h-3l-0.8,3H0l0.8-5.4h16.5L16.4,5.8z"/>
	<path d="M38.9,2.6l-2.1,0.6l-1.9,13.6l2.2,0.6l-0.3,2.1h-8.3l0.3-2.1l2.2-0.6l0.8-6h-7.2l-0.8,6l2.2,0.6l-0.3,2.1h-8.3l0.3-2.1
		l2.1-0.6l1.9-13.6l-2.3-0.7l0.3-2.2h8.2l-0.3,2.3l-2,0.6l-0.7,5.1h7.2L33,3.2l-2.3-0.7L31,0.3h8.2L38.9,2.6z"/>
	<path d="M54.5,5.8h-3.2l0.3-3.1h-4l-0.8,5.7h5.6l-0.4,2.7h-5.5l-0.9,6h4.3l1.3-2.7h3.2l-1.4,5.1H39.4l0.3-2.1l2-0.6l1.9-13.6
		l-2.3-0.7l0.3-2.2h13.7L54.5,5.8z"/>
	<path d="M66.8,2.6l-2.1,0.6l-2.4,17c-0.4,2.8-1.8,4.7-4.8,4.7c-1.4,0-3.2-0.4-3.7-0.5l0.5-2.4c0.6,0.1,1.9,0.3,2.6,0.3
		c1.2,0,1.4-0.7,1.6-2l2.5-17l-2.4-0.6l0.3-2.3H67L66.8,2.6z"/>
	<path d="M82.4,5.8h-3.2l0.3-3.1h-4l-0.8,5.7h5.6l-0.4,2.7h-5.5l-0.9,6h4.3l1.3-2.7h3.2l-1.4,5.1H67.4l0.3-2.1l2-0.6l1.9-13.6
		l-2.3-0.7l0.3-2.2h13.7L82.4,5.8z"/>
	<path d="M106.7,2.6l-2.1,0.6l-2.5,16.3h-5.5L92.7,3.6H92l-1.8,13.2l2.2,0.6l-0.3,2.1h-7.7l0.3-2.1l2-0.6l1.9-13.6l-2.3-0.7l0.3-2.2
		h9.1l3.7,15.8l1.8-13l-2.3-0.7l0.3-2.2h7.7L106.7,2.6z"/>
	<path d="M120.9,6.1h-3.3l0.3-3.4c-0.2-0.1-0.9-0.1-1.9-0.1c-1.7,0-3.4,0.6-3.4,2.6c0,1.2,0.9,1.9,2.5,2.5c3,1.2,6,2.3,6,6.2
		c0,4.6-4.1,6-8,6c-2.6,0-5-0.6-5.9-0.8l1-5h3.3l-0.3,3.2c0.6,0.1,1.5,0.2,2.2,0.2c1.9,0,4-0.7,4-3c0-1.5-1.1-2.1-2.7-2.8
		c-2.6-1.1-5.7-2.4-5.7-5.9c0-4.4,3.8-5.5,7.4-5.5c2.6,0,4.8,0.7,5.5,0.8L120.9,6.1z"/>
	<path d="M137.5,6.1h-3.3l0.3-3.4c-0.2-0.1-0.9-0.1-1.9-0.1c-1.7,0-3.4,0.6-3.4,2.6c0,1.2,0.9,1.9,2.5,2.5c3,1.2,6,2.3,6,6.2
		c0,4.6-4.1,6-8,6c-2.6,0-5-0.6-5.9-0.8l1-5h3.3l-0.3,3.2c0.6,0.1,1.5,0.2,2.2,0.2c1.9,0,4-0.7,4-3c0-1.5-1.1-2.1-2.7-2.8
		c-2.6-1.1-5.7-2.4-5.7-5.9c0-4.4,3.8-5.5,7.4-5.5c2.6,0,4.8,0.7,5.5,0.8L137.5,6.1z"/>
	<path d="M157.3,5.8h-3l0.3-3.1h-2.9l-2,14.1l2.4,0.6l-0.3,2.1h-8.6l0.3-2.1l2.3-0.6l2-14.1h-3l-0.8,3h-3.1l0.8-5.4h16.5L157.3,5.8z
		"/>
	<path d="M173.5,5.8h-3.2l0.3-3.1h-4l-0.8,5.7h5.6l-0.4,2.7h-5.5l-0.9,6h4.3l1.3-2.7h3.2l-1.4,5.1h-13.5l0.3-2.1l2-0.6l1.9-13.6
		l-2.3-0.7l0.3-2.2h13.7L173.5,5.8z"/>
	<path d="M185.7,2.6l-2.1,0.6l-1.9,13.6l2.2,0.6l-0.3,2.1h-8.3l0.3-2.1l2.1-0.6l1.9-13.6l-2.3-0.7l0.3-2.2h8.3L185.7,2.6z"/>
	<path d="M208.9,2.6l-2.1,0.6l-2.5,16.3h-5.5l-3.9-15.9h-0.7l-1.8,13.2l2.2,0.6l-0.3,2.1h-7.7l0.3-2.1l2-0.6L191,3.2l-2.3-0.7
		l0.3-2.2h9.1l3.7,15.8l1.8-13l-2.3-0.7l0.3-2.2h7.7L208.9,2.6z"/>
	<path d="M213.7,19.5h-4.3l0.6-3.8h4.3L213.7,19.5z"/>
	<path d="M234.5,6h-3.4l0.4-3.4c-0.3,0-0.9-0.1-1.4-0.1c-5.4,0-7.2,4.6-7.2,9.2c0,1.5,0.4,4.9,5.6,4.9c1.6,0,3.9-0.5,4.9-0.7l-0.4,3
		c-0.7,0.2-2.7,0.8-4.7,0.8c-5.2,0-9.2-2.3-9.2-7.8c0-3.5,1.1-11.8,11-11.8c2.3,0,4.5,0.4,5.4,0.5L234.5,6z"/>
	<path d="M244.8,19.9c-4.8,0-7.6-3-7.6-7.7C237.2,6,239.6,0,247,0c4.8,0,7.6,3,7.6,7.7C254.6,13.9,252.3,19.9,244.8,19.9z
		 M246.7,2.6c-4.3,0-5.4,5.5-5.4,9.7c0,2.7,0.7,5.1,3.9,5.1c4.2,0,5.4-5.4,5.4-9.7C250.6,5,249.9,2.6,246.7,2.6z"/>
	<path d="M283.3,2.6l-2.2,0.7l-1.9,13.6l2.3,0.6l-0.3,2.1H273l0.3-2.1l2-0.6l1.8-13.1h-0.7l-6.2,13.8h-3.5l-2.3-14h-0.7l-1.8,13.2
		l2.2,0.6l-0.3,2.1h-7.7l0.3-2.1l2.1-0.6l1.9-13.6l-2.4-0.7l0.3-2.2h8.9l1.9,13.2l5.5-13.2h8.8L283.3,2.6z"/>
</g>
</svg>
